<svg t="1715866388479" class="icon" viewBox="0 0 1024 1024" version="1.1" xmlns="http://www.w3.org/2000/svg" p-id="5141" width="256" height="256"><path d="M557.533867 942.967467v35.498666a34.133333 34.133333 0 1 1-68.266667 0v-35.498666A421.0688 421.0688 0 0 1 103.765333 557.533867H68.266667a34.133333 34.133333 0 0 1 0-68.266667h35.498666A421.0688 421.0688 0 0 1 489.2672 103.765333V68.266667a34.133333 34.133333 0 1 1 68.266667 0v35.498666a421.0688 421.0688 0 0 1 385.4336 385.501867h35.498666a34.133333 34.133333 0 1 1 0 68.266667h-35.498666a421.0688 421.0688 0 0 1-385.4336 385.4336z m-68.266667-68.539734V750.933333a34.133333 34.133333 0 1 1 68.266667 0v123.562667a352.802133 352.802133 0 0 0 316.893866-316.962133H750.933333a34.133333 34.133333 0 1 1 0-68.266667h123.562667a352.802133 352.802133 0 0 0-316.962133-316.962133v123.562666a34.133333 34.133333 0 1 1-68.266667 0v-123.562666a352.802133 352.802133 0 0 0-316.962133 316.962133h123.562666a34.133333 34.133333 0 1 1 0 68.266667h-123.562666a352.802133 352.802133 0 0 0 316.962133 316.893866z" fill="#E02E24" p-id="5142"></path></svg>
